<svg width="120" height="109" viewBox="0 0 120 109" fill="none" xmlns="http://www.w3.org/2000/svg">
<path d="M54.4469 65.016C53.4319 65.016 52.6229 64.654 52.0409 63.939C51.4709 63.237 51.2379 62.387 51.3499 61.412C51.5789 59.39 52.1619 57.54 53.0839 55.915C53.9989 54.299 55.5349 52.537 57.6469 50.678C59.6759 48.854 61.2369 47.089 62.2819 45.437C63.3029 43.826 63.8189 42.055 63.8189 40.173C63.8189 37.669 62.9919 35.645 61.2899 33.988C59.6059 32.35 57.2539 31.52 54.2979 31.52C52.1989 31.52 50.4659 31.929 49.1469 32.735C47.8079 33.552 46.6879 34.624 45.8179 35.921C45.3689 36.606 44.7559 37.081 43.9999 37.33C43.6539 37.444 43.3059 37.501 42.9649 37.501C42.5559 37.501 42.1479 37.418 41.7539 37.255C40.8649 36.876 40.3269 36.205 40.1499 35.258C39.9809 34.352 40.1389 33.529 40.6189 32.814C42.0869 30.635 43.9709 28.872 46.2199 27.573C48.4789 26.27 51.1949 25.609 54.2919 25.609C59.2949 25.609 63.2109 27.05 65.9319 29.893C68.6469 32.73 70.0229 36.143 70.0229 40.038C70.0229 42.471 69.4839 44.75 68.4189 46.812C67.3649 48.853 65.7439 50.901 63.5999 52.899C61.4689 54.864 59.9959 56.491 59.2199 57.734C58.4629 58.948 58.0079 60.329 57.8669 61.836C57.7539 62.742 57.3779 63.498 56.7459 64.098C56.1029 64.707 55.3309 65.016 54.4469 65.016Z" fill="#F1F1F2"/>
<path d="M54.29 26.108C59.175 26.108 62.934 27.485 65.569 30.238C68.203 32.991 69.521 36.258 69.521 40.037C69.521 42.401 69.005 44.583 67.973 46.583C66.941 48.582 65.369 50.566 63.257 52.533C61.085 54.537 59.597 56.182 58.795 57.469C57.992 58.756 57.517 60.196 57.368 61.789C57.271 62.565 56.949 63.214 56.401 63.735C55.853 64.256 55.202 64.516 54.448 64.516C53.587 64.516 52.914 64.218 52.43 63.623C51.945 63.028 51.751 62.31 51.848 61.469C52.069 59.506 52.626 57.737 53.52 56.162C54.413 54.587 55.9 52.884 57.979 51.054C60.055 49.187 61.631 47.404 62.707 45.705C63.783 44.005 64.321 42.161 64.321 40.173C64.321 37.551 63.427 35.37 61.639 33.63C59.851 31.89 57.404 31.02 54.298 31.02C52.097 31.02 50.293 31.449 48.886 32.308C47.479 33.167 46.318 34.278 45.402 35.642C45.012 36.236 44.492 36.64 43.842 36.854C43.545 36.952 43.253 37 42.963 37C42.618 37 42.278 36.931 41.944 36.792C41.22 36.484 40.786 35.941 40.641 35.165C40.496 34.389 40.627 33.698 41.033 33.092C42.465 30.966 44.278 29.271 46.469 28.006C48.661 26.741 51.268 26.108 54.29 26.108ZM54.29 25.108C51.104 25.108 48.304 25.792 45.969 27.14C43.655 28.476 41.715 30.291 40.203 32.533C39.647 33.363 39.464 34.31 39.657 35.349C39.863 36.455 40.518 37.273 41.551 37.713C42.015 37.905 42.487 38.001 42.962 38.001C43.356 38.001 43.757 37.935 44.153 37.805C45.02 37.52 45.721 36.977 46.236 36.192C47.061 34.964 48.129 33.941 49.405 33.163C50.646 32.406 52.291 32.022 54.296 32.022C57.158 32.022 59.331 32.783 60.939 34.348C62.54 35.906 63.318 37.812 63.318 40.175C63.318 41.961 62.827 43.642 61.859 45.172C60.837 46.786 59.305 48.516 57.307 50.313C55.161 52.201 53.59 54.007 52.646 55.671C51.69 57.357 51.086 59.271 50.851 61.359C50.723 62.472 50.993 63.447 51.652 64.257C52.324 65.082 53.29 65.519 54.446 65.519C55.461 65.519 56.35 65.164 57.088 64.463C57.806 63.781 58.234 62.924 58.359 61.915C58.496 60.455 58.927 59.148 59.642 58C60.394 56.795 61.837 55.203 63.934 53.269C66.124 51.229 67.78 49.135 68.86 47.043C69.961 44.91 70.519 42.553 70.519 40.039C70.519 36.011 69.096 32.482 66.29 29.549C63.474 26.601 59.436 25.108 54.29 25.108Z" fill="#072543"/>
<path d="M54.281 83.572C53.019 83.572 51.922 83.11 51.018 82.199C50.115 81.289 49.657 80.189 49.657 78.929C49.657 77.667 50.119 76.57 51.03 75.666C51.94 74.763 53.04 74.305 54.3 74.305C55.562 74.305 56.659 74.767 57.563 75.678C58.466 76.588 58.924 77.688 58.924 78.948C58.924 80.209 58.462 81.307 57.552 82.211C56.64 83.114 55.54 83.572 54.281 83.572Z" fill="#F1F1F2"/>
<path d="M54.3 74.805C55.428 74.805 56.398 75.213 57.208 76.03C58.019 76.847 58.424 77.819 58.424 78.948C58.424 80.076 58.016 81.046 57.199 81.856C56.382 82.666 55.41 83.072 54.281 83.072C53.153 83.072 52.183 82.664 51.373 81.847C50.562 81.03 50.157 80.058 50.157 78.929C50.157 77.801 50.565 76.831 51.382 76.021C52.199 75.21 53.172 74.805 54.3 74.805ZM54.3 73.805C52.904 73.805 51.685 74.312 50.678 75.311C49.669 76.312 49.157 77.53 49.157 78.929C49.157 80.325 49.664 81.544 50.663 82.551C51.664 83.56 52.882 84.072 54.281 84.072C55.677 84.072 56.896 83.565 57.903 82.566C58.912 81.565 59.424 80.347 59.424 78.948C59.424 77.552 58.917 76.333 57.918 75.326C56.916 74.317 55.699 73.805 54.3 73.805Z" fill="#072543"/>
<path d="M28.6119 60.053C28.0339 60.053 27.5509 59.835 27.2159 59.422C26.8859 59.017 26.7509 58.529 26.8159 57.972C26.9329 56.93 27.2349 55.973 27.7129 55.13C28.1859 54.297 28.9719 53.394 30.0479 52.447C31.0429 51.552 31.8079 50.687 32.3189 49.88C32.8029 49.115 33.0489 48.275 33.0489 47.382C33.0489 46.201 32.6599 45.248 31.8599 44.469C31.0549 43.686 29.9679 43.305 28.5379 43.305C27.5359 43.305 26.7139 43.497 26.0939 43.876C25.4559 44.265 24.9219 44.776 24.5059 45.395C24.2499 45.784 23.8999 46.056 23.4659 46.197C23.2699 46.262 23.0699 46.295 22.8719 46.295C22.6339 46.295 22.3979 46.247 22.1709 46.153C21.6489 45.931 21.3209 45.523 21.2189 44.969C21.1219 44.45 21.2139 43.977 21.4909 43.563C22.2469 42.44 23.2169 41.533 24.3739 40.865C25.5419 40.191 26.9409 39.849 28.5349 39.849C31.1069 39.849 33.1269 40.596 34.5359 42.069C35.9389 43.536 36.6499 45.301 36.6499 47.314C36.6499 48.572 36.3709 49.75 35.8199 50.816C35.2809 51.861 34.4529 52.908 33.3589 53.927C32.3079 54.896 31.5869 55.692 31.2109 56.294C30.8549 56.867 30.6389 57.521 30.5709 58.236C30.5079 58.755 30.2939 59.183 29.9339 59.525C29.5629 59.876 29.1189 60.053 28.6119 60.053Z" fill="#F1F1F2"/>
<path d="M28.5339 40.349C30.9759 40.349 32.8559 41.037 34.1729 42.414C35.4899 43.791 36.1489 45.424 36.1489 47.313C36.1489 48.495 35.8909 49.586 35.3749 50.586C34.8589 51.586 34.0729 52.577 33.0169 53.561C31.9309 54.563 31.1869 55.386 30.7859 56.029C30.3849 56.673 30.1469 57.393 30.0719 58.189C30.0239 58.577 29.8629 58.902 29.5879 59.162C29.3139 59.422 28.9879 59.553 28.6109 59.553C28.1809 59.553 27.8439 59.404 27.6019 59.106C27.3599 58.808 27.2629 58.449 27.3109 58.029C27.4219 57.047 27.6999 56.163 28.1469 55.375C28.5939 54.588 29.3369 53.736 30.3769 52.821C31.4149 51.888 32.2029 50.996 32.7409 50.146C33.2789 49.296 33.5479 48.374 33.5479 47.38C33.5479 46.069 33.1009 44.978 32.2069 44.108C31.3129 43.238 30.0899 42.803 28.5369 42.803C27.4359 42.803 26.5339 43.018 25.8309 43.447C25.1279 43.876 24.5469 44.432 24.0889 45.114C23.8939 45.411 23.6339 45.613 23.3089 45.72C23.1609 45.769 23.0139 45.793 22.8699 45.793C22.6979 45.793 22.5279 45.758 22.3599 45.689C21.9979 45.535 21.7809 45.264 21.7079 44.875C21.6359 44.487 21.7009 44.141 21.9039 43.838C22.6199 42.775 23.5259 41.927 24.6219 41.295C25.7189 40.665 27.0229 40.349 28.5339 40.349ZM28.5339 39.349C26.8519 39.349 25.3679 39.713 24.1229 40.432C22.8989 41.138 21.8739 42.097 21.0749 43.282C20.7259 43.803 20.6049 44.418 20.7249 45.061C20.8579 45.776 21.2999 46.327 21.9679 46.611C22.2659 46.734 22.5659 46.795 22.8699 46.795C23.1199 46.795 23.3729 46.754 23.6219 46.672C24.1659 46.493 24.6039 46.154 24.9249 45.665C25.2989 45.108 25.7679 44.659 26.3519 44.303C26.8929 43.973 27.6279 43.806 28.5369 43.806C29.8309 43.806 30.8039 44.14 31.5099 44.828C32.2089 45.508 32.5479 46.344 32.5479 47.383C32.5479 48.191 32.3349 48.921 31.8959 49.614C31.4089 50.383 30.6729 51.212 29.7079 52.08C28.5809 53.071 27.7839 53.991 27.2769 54.884C26.7659 55.786 26.4429 56.807 26.3169 57.919C26.2379 58.603 26.4139 59.234 26.8259 59.739C27.2599 60.272 27.8769 60.554 28.6109 60.554C29.2419 60.554 29.8179 60.324 30.2759 59.888C30.7209 59.465 30.9859 58.935 31.0629 58.313C31.1269 57.637 31.3119 57.073 31.6329 56.559C31.9849 55.994 32.6779 55.233 33.6939 54.297C34.8329 53.236 35.6959 52.143 36.2629 51.046C36.8499 49.908 37.1479 48.652 37.1479 47.315C37.1479 45.168 36.3899 43.287 34.8949 41.724C33.3889 40.148 31.2479 39.349 28.5339 39.349Z" fill="#072543"/>
<path d="M28.5289 69.331C27.8299 69.331 27.2209 69.075 26.7199 68.57C26.2199 68.066 25.9659 67.457 25.9659 66.759C25.9659 66.06 26.2219 65.451 26.7269 64.95C27.2309 64.45 27.8399 64.197 28.5389 64.197C29.2389 64.197 29.8479 64.453 30.3489 64.958C30.8479 65.461 31.1009 66.07 31.1009 66.769C31.1009 67.468 30.8449 68.077 30.3409 68.578C29.8379 69.078 29.2279 69.331 28.5289 69.331Z" fill="#F1F1F2"/>
<path d="M28.5379 64.698C29.1019 64.698 29.5869 64.902 29.9919 65.311C30.3969 65.719 30.5999 66.206 30.5999 66.77C30.5999 67.334 30.3959 67.819 29.9869 68.224C29.5789 68.629 29.0919 68.832 28.5279 68.832C27.9639 68.832 27.4789 68.628 27.0739 68.219C26.6689 67.811 26.4659 67.324 26.4659 66.76C26.4659 66.196 26.6699 65.711 27.0789 65.306C27.4879 64.901 27.9739 64.698 28.5379 64.698ZM28.5379 63.698C27.7149 63.698 26.9669 64.009 26.3749 64.596C25.7809 65.186 25.4669 65.934 25.4669 66.76C25.4669 67.583 25.7779 68.331 26.3649 68.923C26.9549 69.517 27.7029 69.831 28.5289 69.831C29.3519 69.831 30.0999 69.52 30.6919 68.933C31.2859 68.343 31.5999 67.595 31.5999 66.769C31.5999 65.946 31.2889 65.198 30.7019 64.606C30.1129 64.012 29.3649 63.698 28.5379 63.698Z" fill="#072543"/>
<path d="M87.014 62.535C86.213 62.535 85.574 62.247 85.113 61.681C84.663 61.129 84.478 60.46 84.566 59.693C84.739 58.161 85.182 56.758 85.882 55.524C86.575 54.3 87.736 52.968 89.331 51.564C90.842 50.205 92.005 48.89 92.785 47.66C93.536 46.472 93.918 45.165 93.918 43.779C93.918 41.936 93.31 40.448 92.058 39.23C90.82 38.025 89.085 37.414 86.902 37.414C85.353 37.414 84.075 37.714 83.103 38.307C82.115 38.911 81.288 39.702 80.645 40.66C80.292 41.197 79.811 41.57 79.216 41.766C78.944 41.855 78.67 41.901 78.401 41.901C78.078 41.901 77.755 41.836 77.445 41.707C76.748 41.411 76.307 40.861 76.168 40.117C76.035 39.403 76.159 38.756 76.538 38.191C77.65 36.54 79.077 35.205 80.78 34.222C82.493 33.233 84.551 32.732 86.896 32.732C90.684 32.732 93.652 33.826 95.716 35.983C97.775 38.134 98.819 40.723 98.819 43.678C98.819 45.524 98.41 47.252 97.603 48.816C96.805 50.361 95.581 51.909 93.962 53.415C92.37 54.883 91.274 56.095 90.699 57.017C90.14 57.911 89.805 58.927 89.702 60.039C89.613 60.751 89.318 61.344 88.823 61.814C88.318 62.291 87.71 62.535 87.014 62.535Z" fill="#F1F1F2"/>
<path d="M86.897 33.228C90.561 33.228 93.38 34.261 95.356 36.326C97.332 38.391 98.32 40.841 98.32 43.675C98.32 45.448 97.933 47.085 97.159 48.584C96.385 50.084 95.206 51.571 93.622 53.046C91.993 54.549 90.877 55.783 90.275 56.748C89.673 57.713 89.316 58.793 89.205 59.988C89.133 60.57 88.891 61.057 88.48 61.448C88.069 61.839 87.58 62.034 87.015 62.034C86.369 62.034 85.865 61.811 85.501 61.364C85.137 60.917 84.992 60.379 85.064 59.748C85.23 58.276 85.648 56.949 86.318 55.768C86.988 54.587 88.103 53.31 89.663 51.937C91.22 50.537 92.402 49.2 93.209 47.925C94.016 46.65 94.42 45.267 94.42 43.776C94.42 41.809 93.75 40.174 92.409 38.869C91.068 37.564 89.233 36.912 86.904 36.912C85.253 36.912 83.9 37.234 82.845 37.878C81.79 38.522 80.919 39.356 80.232 40.379C79.94 40.825 79.55 41.128 79.062 41.288C78.84 41.361 78.62 41.398 78.403 41.398C78.144 41.398 77.89 41.346 77.638 41.242C77.095 41.011 76.769 40.604 76.661 40.022C76.552 39.44 76.65 38.921 76.955 38.467C78.029 36.873 79.388 35.601 81.032 34.652C82.674 33.703 84.63 33.228 86.897 33.228ZM86.897 32.228C84.463 32.228 82.321 32.752 80.531 33.785C78.762 34.806 77.279 36.193 76.124 37.907C75.675 38.577 75.521 39.37 75.676 40.204C75.847 41.12 76.389 41.797 77.245 42.161C77.626 42.319 78.012 42.397 78.401 42.397C78.723 42.397 79.05 42.343 79.373 42.237C80.078 42.005 80.648 41.564 81.066 40.927C81.663 40.038 82.438 39.296 83.364 38.731C84.255 38.187 85.445 37.912 86.902 37.912C88.98 37.912 90.553 38.46 91.71 39.586C92.86 40.705 93.419 42.076 93.419 43.777C93.419 45.087 93.074 46.269 92.363 47.391C91.609 48.582 90.475 49.862 88.993 51.194C87.365 52.627 86.169 54.003 85.447 55.275C84.713 56.569 84.25 58.036 84.069 59.637C83.967 60.528 84.193 61.344 84.724 61.996C85.277 62.675 86.069 63.034 87.013 63.034C87.829 63.034 88.574 62.736 89.167 62.173C89.749 61.621 90.095 60.927 90.196 60.112C90.296 59.049 90.606 58.105 91.123 57.278C91.675 56.393 92.743 55.217 94.299 53.782C95.964 52.232 97.223 50.638 98.046 49.043C98.89 47.407 99.318 45.601 99.318 43.675C99.318 40.587 98.227 37.882 96.077 35.634C93.916 33.375 90.826 32.228 86.897 32.228Z" fill="#072543"/>
<path d="M86.889 76.451C85.909 76.451 85.055 76.092 84.353 75.384C83.652 74.678 83.296 73.823 83.296 72.844C83.296 71.863 83.655 71.01 84.363 70.308C85.069 69.607 85.924 69.251 86.902 69.251C87.881 69.251 88.735 69.61 89.438 70.317C90.14 71.025 90.496 71.88 90.496 72.858C90.496 73.838 90.138 74.691 89.43 75.394C88.722 76.096 87.868 76.451 86.889 76.451Z" fill="#F1F1F2"/>
<path d="M86.904 69.751C87.75 69.751 88.477 70.057 89.085 70.67C89.693 71.283 89.997 72.012 89.997 72.858C89.997 73.704 89.691 74.431 89.078 75.039C88.465 75.647 87.736 75.951 86.89 75.951C86.044 75.951 85.317 75.645 84.709 75.032C84.101 74.419 83.797 73.69 83.797 72.844C83.797 71.998 84.103 71.271 84.716 70.663C85.328 70.055 86.057 69.751 86.904 69.751ZM86.904 68.751C85.788 68.751 84.815 69.155 84.011 69.953C83.205 70.753 82.797 71.725 82.797 72.844C82.797 73.96 83.201 74.933 83.999 75.737C84.799 76.543 85.771 76.952 86.89 76.952C88.006 76.952 88.979 76.548 89.783 75.75C90.589 74.95 90.998 73.978 90.998 72.859C90.998 71.743 90.594 70.77 89.796 69.966C88.995 69.16 88.022 68.751 86.904 68.751Z" fill="#072543"/>
</svg>
