<svg width="121" height="109" viewBox="0 0 121 109" fill="none" xmlns="http://www.w3.org/2000/svg">
<path d="M93.826 38.223H26.674" stroke="#02FF83" stroke-miterlimit="10" stroke-linecap="round" stroke-linejoin="round"/>
<path d="M88.648 41.737V53.779V85.681C88.648 87.338 87.305 88.681 85.648 88.681H34.852C33.195 88.681 31.852 87.338 31.852 85.681V53.779V41.737H88.648Z" fill="#F1F1F2" stroke="#072543" stroke-miterlimit="10" stroke-linecap="round" stroke-linejoin="round"/>
<path d="M53.743 88.681V76.574C53.743 75.544 53.289 74.683 52.382 73.99C51.475 73.298 50.346 72.952 48.995 72.952C47.644 72.952 46.516 73.298 45.608 73.99C44.701 74.682 44.247 75.543 44.247 76.574V88.681" fill="#072543"/>
<path d="M53.743 88.681V76.574C53.743 75.544 53.289 74.683 52.382 73.99C51.475 73.298 50.346 72.952 48.995 72.952C47.644 72.952 46.516 73.298 45.608 73.99C44.701 74.682 44.247 75.543 44.247 76.574V88.681" stroke="#072543" stroke-miterlimit="10"/>
<path d="M52.743 62.092H45.247C44.695 62.092 44.247 61.644 44.247 61.092V53.596C44.247 53.044 44.695 52.596 45.247 52.596H52.743C53.295 52.596 53.743 53.044 53.743 53.596V61.092C53.743 61.644 53.296 62.092 52.743 62.092Z" stroke="#072543" stroke-miterlimit="10"/>
<path d="M75.937 62.092H68.441C67.889 62.092 67.441 61.644 67.441 61.092V53.596C67.441 53.044 67.889 52.596 68.441 52.596H75.937C76.489 52.596 76.937 53.044 76.937 53.596V61.092C76.937 61.644 76.489 62.092 75.937 62.092Z" stroke="#072543" stroke-miterlimit="10"/>
<path d="M75.937 82.448H68.441C67.889 82.448 67.441 82 67.441 81.448V73.952C67.441 73.4 67.889 72.952 68.441 72.952H75.937C76.489 72.952 76.937 73.4 76.937 73.952V81.448C76.937 82.001 76.489 82.448 75.937 82.448Z" stroke="#072543" stroke-miterlimit="10"/>
</svg>
