<svg width="120" height="109" viewBox="0 0 120 109" fill="none" xmlns="http://www.w3.org/2000/svg">
<g clip-path="url(#clip0_1_268)">
<path d="M99.071 48.849L99.084 65.72C99.085 66.934 98.354 68.029 97.232 68.494L52.531 87.016L52.841 64.228L99.071 48.849Z" fill="#F1F1F2" stroke="#072543" stroke-miterlimit="10" stroke-linecap="round" stroke-linejoin="round"/>
<path d="M22.048 51.903V71.13C22.048 72.299 22.727 73.362 23.789 73.853L52.532 87.015L52.842 64.606L49.153 65.834L32.587 36.305L22.048 51.903Z" fill="#F1F1F2" stroke="#072543" stroke-miterlimit="10" stroke-linecap="round" stroke-linejoin="round"/>
<path d="M32.452 36.504L22.047 51.904L22.105 52.854C22.105 52.854 18.198 53.763 17.654 53.886C17.29 53.942 17.05 53.586 17.23 53.325C17.308 53.207 30.892 32.634 30.892 32.634L49.605 65.421L49.05 65.442" fill="#072543"/>
<path d="M102.181 48.016L87.93 23.633C87.878 23.543 87.775 23.496 87.673 23.515L30.828 33.751C30.661 33.781 30.573 33.967 30.657 34.115L49.099 66.78C49.157 66.883 49.28 66.93 49.392 66.893L102.662 49.184C102.763 49.15 102.831 49.056 102.831 48.95V48.092L102.181 48.016Z" fill="#072543"/>
<path d="M88.5999 22.923L102.831 48.091L49.6059 65.778L30.8929 32.634L87.5519 22.431C87.9699 22.356 88.3909 22.553 88.5999 22.923Z" fill="#02FF83"/>
<path d="M80.049 40.659L89.935 52.887L68.403 60.041L80.049 40.659Z" fill="#F1F1F2"/>
<path d="M80.11 41.529L89.093 52.64L69.527 59.14L80.11 41.529ZM79.989 39.789L67.278 60.941L90.778 53.134L79.989 39.789Z" fill="#072543"/>
<path d="M68.223 36.985L79.989 39.789L68.036 59.664" fill="#00CF6A"/>
<path d="M45.627 39.688L53.126 52.967L62.052 50.47L53.76 37.909L45.627 39.688Z" fill="#F1F1F2" stroke="#072543" stroke-miterlimit="10" stroke-linecap="round" stroke-linejoin="round"/>
</g>
<defs>
<clipPath id="clip0_1_268">
<rect width="120" height="108" fill="white" transform="translate(0 0.589996)"/>
</clipPath>
</defs>
</svg>
