<svg width="121" height="109" viewBox="0 0 121 109" fill="none" xmlns="http://www.w3.org/2000/svg">
<path d="M88.398 41.826V53.868V85.77C88.398 87.427 87.055 88.77 85.398 88.77H34.602C32.945 88.77 31.602 87.427 31.602 85.77V53.868V30.557L88.398 41.826Z" fill="#F1F1F2" stroke="#072543" stroke-miterlimit="10" stroke-linecap="round" stroke-linejoin="round"/>
<path d="M53.493 88.77V76.663C53.493 75.633 53.039 74.772 52.132 74.079C51.225 73.387 50.096 73.041 48.745 73.041C47.394 73.041 46.266 73.387 45.358 74.079C44.451 74.771 43.997 75.632 43.997 76.663V88.77" fill="#072543"/>
<path d="M53.493 88.77V76.663C53.493 75.633 53.039 74.772 52.132 74.079C51.225 73.387 50.096 73.041 48.745 73.041C47.394 73.041 46.266 73.387 45.358 74.079C44.451 74.771 43.997 75.632 43.997 76.663V88.77" stroke="#072543" stroke-miterlimit="10"/>
<path d="M52.493 62.181H44.997C44.445 62.181 43.997 61.733 43.997 61.181V53.685C43.997 53.133 44.445 52.685 44.997 52.685H52.493C53.045 52.685 53.493 53.133 53.493 53.685V61.181C53.493 61.733 53.045 62.181 52.493 62.181Z" stroke="#072543" stroke-miterlimit="10"/>
<path d="M75.687 62.181H68.191C67.639 62.181 67.191 61.733 67.191 61.181V53.685C67.191 53.133 67.639 52.685 68.191 52.685H75.687C76.239 52.685 76.687 53.133 76.687 53.685V61.181C76.687 61.733 76.239 62.181 75.687 62.181Z" stroke="#072543" stroke-miterlimit="10"/>
<path d="M75.687 82.537H68.191C67.639 82.537 67.191 82.089 67.191 81.537V74.041C67.191 73.489 67.639 73.041 68.191 73.041H75.687C76.239 73.041 76.687 73.489 76.687 74.041V81.537C76.687 82.09 76.239 82.537 75.687 82.537Z" stroke="#072543" stroke-miterlimit="10"/>
<path d="M26.424 25.918L93.575 39.24" stroke="#02FF83" stroke-miterlimit="10" stroke-linecap="round" stroke-linejoin="round"/>
</svg>
