<svg width="121" height="109" viewBox="0 0 121 109" fill="none" xmlns="http://www.w3.org/2000/svg">
<path d="M99.496 49.367C90.191 42.459 75.945 31.883 60.642 20.522C45.339 31.883 31.092 42.46 21.788 49.367" stroke="#02FF83" stroke-miterlimit="10" stroke-linecap="round" stroke-linejoin="round"/>
<path d="M60.75 24.741C50.285 32.51 39.82 40.279 32.352 45.823V53.779V85.681C32.352 87.338 33.695 88.681 35.352 88.681H86.148C87.805 88.681 89.148 87.338 89.148 85.681V53.779V45.823C81.68 40.279 71.215 32.51 60.75 24.741Z" fill="#F1F1F2" stroke="#072543" stroke-miterlimit="10" stroke-linecap="round" stroke-linejoin="round"/>
<path d="M54.243 88.681V76.574C54.243 75.544 53.789 74.683 52.882 73.99C51.975 73.298 50.846 72.952 49.495 72.952C48.144 72.952 47.016 73.298 46.108 73.99C45.201 74.682 44.747 75.543 44.747 76.574V88.681" fill="#072543"/>
<path d="M54.243 88.681V76.574C54.243 75.544 53.789 74.683 52.882 73.99C51.975 73.298 50.846 72.952 49.495 72.952C48.144 72.952 47.016 73.298 46.108 73.99C45.201 74.682 44.747 75.543 44.747 76.574V88.681" stroke="#072543" stroke-miterlimit="10"/>
<path d="M53.243 62.092H45.747C45.195 62.092 44.747 61.644 44.747 61.092V53.596C44.747 53.044 45.195 52.596 45.747 52.596H53.243C53.795 52.596 54.243 53.044 54.243 53.596V61.092C54.243 61.644 53.796 62.092 53.243 62.092Z" stroke="#072543" stroke-miterlimit="10"/>
<path d="M76.437 62.092H68.941C68.389 62.092 67.941 61.644 67.941 61.092V53.596C67.941 53.044 68.389 52.596 68.941 52.596H76.437C76.989 52.596 77.437 53.044 77.437 53.596V61.092C77.437 61.644 76.989 62.092 76.437 62.092Z" stroke="#072543" stroke-miterlimit="10"/>
<path d="M76.437 82.448H68.941C68.389 82.448 67.941 82 67.941 81.448V73.952C67.941 73.4 68.389 72.952 68.941 72.952H76.437C76.989 72.952 77.437 73.4 77.437 73.952V81.448C77.437 82.001 76.989 82.448 76.437 82.448Z" stroke="#072543" stroke-miterlimit="10"/>
</svg>
